<svg width="94" height="94" viewBox="0 0 94 94" fill="none" xmlns="http://www.w3.org/2000/svg">
<path d="M44.9112 56.7537L46.0939 57.0288C45.7811 58.3965 45.4758 59.6076 45.182 60.6582C44.8883 61.7127 44.5678 62.7404 44.2244 63.749C43.881 64.7576 43.5262 65.5942 43.1523 66.2514C42.7822 66.9085 42.3816 67.4472 41.9581 67.8712C41.5308 68.2915 41.073 68.5054 40.5846 68.5131C40.0962 68.5207 39.585 68.3297 39.0508 67.9362C37.9062 66.9963 37.0516 65.1052 36.4793 62.2666C35.6361 58.3354 35.7086 52.5169 36.6853 44.8225C36.7578 44.5245 36.6815 44.3411 36.4488 44.2762C34.9188 44.9868 32.0993 46.2017 27.9864 47.9171C24.8083 49.2351 21.2524 50.1864 17.3188 50.7671C13.3852 51.3478 10.8175 51.3096 9.61949 50.6449C8.94036 50.2934 8.59699 49.4338 8.58936 48.0623C8.58936 47.5045 8.63896 46.8512 8.74578 46.11C9.66909 46.5111 10.7336 46.7786 11.9354 46.9123C15.0525 47.2943 18.822 47.1301 23.2402 46.4156C24.8083 46.175 26.2543 45.9113 27.582 45.6324C28.9059 45.3497 30.0772 45.0594 31.0845 44.7614C32.0955 44.4596 32.8929 44.2189 33.4843 44.024C34.0719 43.833 34.7357 43.5885 35.4721 43.2867C36.2122 42.9887 36.6396 42.8206 36.754 42.7862L36.9944 42.6984C37.6201 38.4233 38.3679 34.7022 39.234 31.5389C40.1 28.3755 40.9051 26.5341 41.6529 26.0145C42.4045 25.5255 43.2591 25.4605 44.2091 25.8235C44.7395 26.0794 45.1057 26.3201 45.308 26.5417C45.2202 26.6219 45.079 26.7977 44.8806 27.0651C44.6555 27.3707 44.213 28.1998 43.5376 29.556C42.1451 32.5971 41.0119 36.4863 40.1344 41.2237C45.865 38.7022 49.5277 37.1778 51.1187 36.6621C51.9237 36.4023 52.5265 36.2609 52.931 36.2304C54.3884 36.1387 55.3766 36.4367 55.9069 37.1167C56.1549 37.4147 56.338 37.7853 56.4563 38.2246C55.4605 38.2246 54.2472 38.3622 52.8203 38.6334C49.2225 39.409 45.4911 40.7117 41.6338 42.5417C41.424 42.6258 40.8211 42.9123 39.8139 43.4051C39.4629 45.6401 39.1577 48.3526 38.883 51.5465C38.6159 54.8703 38.6655 57.7203 39.0318 60.1043C39.3599 62.2361 39.8215 63.8636 40.4167 64.9944C41.0882 66.175 42.0306 65.1778 43.2515 61.9916C43.8085 60.5474 44.3618 58.8015 44.9112 56.7537Z" fill="#37266E"/>
<path d="M77.719 47.9516C77.1238 47.5275 76.212 47.3518 74.9872 47.4205C74.3997 47.4626 73.8274 47.7147 73.2665 48.1808C72.7057 48.6469 72.1906 49.2161 71.729 49.8885C71.2673 50.5609 70.798 51.2868 70.3287 52.0738C69.8556 52.857 69.3673 53.5829 68.8637 54.2515C68.36 54.9239 67.8335 55.4817 67.2841 55.9286C66.7347 56.3795 66.1052 56.6087 65.3994 56.624C64.6935 56.6431 63.9457 56.3871 63.1559 55.8675C61.771 55.0156 60.8057 54.6221 60.2487 54.6908C59.6955 54.7596 59.2529 55.3288 58.9248 56.3947C58.589 58.2744 58.177 59.9554 57.6848 61.4339C57.1926 62.9124 56.6966 63.7873 56.1968 64.0509C55.7161 64.0203 55.2773 63.9554 54.8729 63.8484C53.9458 63.6536 53.3811 63.325 53.1751 62.8666C52.8966 62.282 52.6753 60.9258 52.4998 58.794C52.3243 56.6622 52.2785 55.1493 52.3586 54.2591C52.4044 53.7777 52.454 53.1817 52.515 52.4711C52.5761 51.7567 52.618 51.1493 52.6409 50.6488C52.6676 50.1445 52.6753 49.8771 52.6715 49.8427C52.5684 50.3852 51.9885 52.6469 50.9279 56.6392C49.8672 60.6278 49.272 62.6297 49.1385 62.6488C48.9744 62.6755 48.7264 62.6832 48.3945 62.6755C48.0664 62.6679 47.6658 62.6297 47.2003 62.5686C46.7348 62.5036 46.3228 62.3546 45.968 62.1254C45.6131 61.8923 45.4033 61.5867 45.3461 61.2047C45.3346 61.1397 45.3041 60.9296 45.2507 60.5743C45.1973 60.219 45.1591 59.9745 45.14 59.8408C45.1209 59.7109 45.0866 59.4626 45.0408 59.0958C44.9912 58.7328 44.9607 58.4425 44.9454 58.2324C44.9302 58.0261 44.9073 57.7395 44.8768 57.3804C44.8462 57.0213 44.831 56.708 44.8348 56.4368C44.8348 56.1655 44.8386 55.8599 44.8424 55.5199C44.8501 55.1798 44.873 54.8475 44.9149 54.5189C44.9569 54.1903 45.0065 53.8694 45.0599 53.5562C45.2125 52.5858 45.4796 51.7491 45.8535 51.0461C46.2274 50.347 46.6356 49.8465 47.082 49.5485C47.5284 49.2505 47.9977 49.0213 48.4975 48.8608C48.9935 48.7004 49.4551 48.6622 49.8748 48.75C50.2526 48.7921 50.718 49.0175 51.2712 49.4224C51.9618 47.2028 52.3624 46.0795 52.4807 46.0604C52.7783 46.0146 53.3201 46.1483 54.1136 46.4578C54.9034 46.7672 55.3574 47.092 55.4795 47.4282C55.4986 47.5581 55.4833 48.8494 55.4299 51.2944C55.3765 53.7395 55.346 56.1273 55.3498 58.4501C55.3536 60.7768 55.4376 61.9802 55.5978 62.0566C55.8115 62.2286 56.0671 61.8121 56.3723 60.8073C56.6737 59.8026 57.1697 57.9191 57.8603 55.1569C57.9595 53.8198 58.5928 53.2085 59.7565 53.3155C60.2029 53.3651 60.676 53.5027 61.1758 53.7319C61.6756 53.9573 62.1144 54.1751 62.4921 54.3775C62.8698 54.58 63.2551 54.7519 63.6481 54.8857C64.0373 55.0194 64.415 55.0194 64.7775 54.8895C65.1399 54.7596 65.4795 54.4731 65.8 54.0337C66.3951 53.197 67.2612 51.8561 68.3906 50.0184C69.5161 48.177 70.3287 46.9391 70.8247 46.305C70.9277 46.1789 71.0308 46.0604 71.1338 45.942C72.6256 44.2992 75.2619 44.4903 76.5515 46.2973L77.719 47.9516ZM48.1007 60.6813L49.0431 57.262C50.1686 53.1474 50.7752 50.9391 50.863 50.6373L50.7409 50.5036C50.6417 50.4196 50.5501 50.3393 50.4624 50.2668C50.3746 50.1942 50.2602 50.133 50.1152 50.0796C49.974 50.0261 49.8405 50.0031 49.7146 50.0146C49.5887 50.0261 49.4475 50.0872 49.2873 50.1942C49.127 50.3011 48.9706 50.4731 48.818 50.6985C48.2724 51.4434 47.9099 52.9181 47.7268 55.1302C47.5666 56.624 47.5818 57.9879 47.7688 59.2104C47.8413 59.6727 47.9519 60.1617 48.1007 60.6813Z" fill="#37266E"/>
<path d="M73.9762 41.7279C71.5191 29.0516 60.3746 19.4814 46.9981 19.4814C32.8738 19.4814 21.2371 30.1519 19.6919 43.8864" stroke="white" stroke-miterlimit="10"/>
<path d="M46.998 74.8318C34.4189 74.8318 23.3736 66.3427 20.1382 54.1861L20.7486 54.0218C23.9115 65.8996 34.7051 74.1976 46.998 74.1976C60.8934 74.1976 72.5034 63.7831 74.0028 49.9722L74.6323 50.0409C73.0986 64.1727 61.2177 74.8318 46.998 74.8318Z" fill="white"/>
<path d="M20.0732 52.5244C20.1801 53.0593 20.306 53.5865 20.4433 54.1061" stroke="white" stroke-miterlimit="10"/>
<path d="M46.9979 92.2149C22.0992 92.2149 1.83984 71.9322 1.83984 46.9962C1.83984 22.0601 22.0954 1.78125 46.9979 1.78125C71.8967 1.78125 92.1522 22.064 92.1522 46.9962C92.1522 71.9283 71.8967 92.2149 46.9979 92.2149ZM46.9979 2.41544C22.4464 2.41544 2.47319 22.4154 2.47319 47C2.47319 71.5845 22.4464 91.5845 46.9979 91.5845C71.5495 91.5845 91.5227 71.5845 91.5227 47C91.5227 22.4154 71.5495 2.41544 46.9979 2.41544Z" fill="white"/>
<path d="M46.998 93.9379C21.1493 93.9379 0.123047 72.8796 0.123047 46.9999C0.123047 21.1203 21.1531 0.0620117 46.998 0.0620117C72.843 0.0620117 93.873 21.1165 93.873 46.9999C93.873 72.8834 72.8468 93.9379 46.998 93.9379ZM46.998 0.692388C21.5003 0.692388 0.756391 21.4641 0.756391 46.9961C0.756391 72.5281 21.5003 93.3037 46.998 93.3037C72.4958 93.3037 93.2397 72.5319 93.2397 46.9961C93.2435 21.4679 72.4996 0.692388 46.998 0.692388Z" fill="white"/>
<path d="M11.2485 41.0438L10.9585 42.6063L9.90552 42.4115L10.6915 38.144L11.7483 38.3389L11.4584 39.9014L15.4606 40.6426L15.247 41.7849L11.2485 41.0438Z" fill="white"/>
<path d="M16.384 34.9505C15.7086 35.2065 15.0257 35.1721 14.3351 34.8512C13.6407 34.5302 13.1715 34.0298 12.9311 33.3497C12.6869 32.6659 12.7251 31.9744 13.0456 31.279C13.366 30.5837 13.8697 30.11 14.5488 29.854C15.2241 29.5942 15.9109 29.6248 16.6014 29.9457C17.2958 30.2666 17.7651 30.7709 18.0016 31.4548C18.2458 32.1386 18.2077 32.8301 17.8872 33.5255C17.5667 34.217 17.0631 34.6945 16.384 34.9505ZM16.8761 33.0556C17.0516 32.6735 17.0669 32.2876 16.9219 31.9018C16.7693 31.5197 16.4946 31.2332 16.094 31.046C15.6896 30.8588 15.2966 30.832 14.9151 30.9696C14.5259 31.1033 14.2398 31.3631 14.0604 31.749C13.8849 32.131 13.8697 32.5169 14.0223 32.8989C14.1673 33.2771 14.4381 33.5598 14.8426 33.7509C15.2432 33.9381 15.6362 33.9648 16.0291 33.8311C16.4145 33.6936 16.6968 33.4376 16.8761 33.0556Z" fill="white"/>
<path d="M17.0515 24.6696L17.7917 23.7642L20.9431 26.343L22.5112 24.4175L23.343 25.0975L21.0309 27.9284L17.0515 24.6696Z" fill="white"/>
<path d="M26.8989 19.2138L25.0294 16.7955L25.9489 16.0811L27.8222 18.507C28.2 18.9922 28.3411 19.5347 28.2572 20.1345C28.1694 20.7305 27.868 21.2234 27.3568 21.6245C26.8417 22.0257 26.2847 22.1899 25.6895 22.125C25.0867 22.06 24.5983 21.7811 24.2244 21.2998L22.3511 18.8738L23.2668 18.1632L25.1401 20.5815C25.3347 20.8337 25.5788 20.9789 25.8764 21.0171C26.1702 21.0553 26.4487 20.975 26.7044 20.7764C26.9562 20.5815 27.1011 20.337 27.1393 20.039C27.166 19.7372 27.0935 19.4621 26.8989 19.2138Z" fill="white"/>
<path d="M30.0732 13.6591L31.1377 13.1777L32.8088 16.8912L35.0713 15.8673L35.5101 16.8454L32.1831 18.3468L30.0732 13.6591Z" fill="white"/>
<path d="M39.2757 14.9812C38.6805 14.5724 38.3181 13.9917 38.1845 13.239C38.051 12.4864 38.196 11.814 38.6157 11.2295C39.0392 10.6373 39.6267 10.2744 40.3784 10.1407C41.13 10.0069 41.8091 10.1483 42.4081 10.5571C43.0033 10.9659 43.3734 11.5466 43.5031 12.2992C43.6366 13.0518 43.4878 13.7242 43.0682 14.3088C42.6447 14.9009 42.0571 15.2639 41.3017 15.3976C40.55 15.5313 39.8709 15.3938 39.2757 14.9812ZM41.1071 14.2973C41.5191 14.2247 41.8434 14.0184 42.08 13.6784C42.3051 13.3345 42.3852 12.9449 42.3051 12.5093C42.2288 12.07 42.0228 11.7338 41.6946 11.4969C41.3665 11.2524 40.9888 11.1684 40.5653 11.2409C40.1533 11.3135 39.829 11.5237 39.6 11.8675C39.3711 12.2037 39.2948 12.5896 39.3749 13.0289C39.4512 13.4644 39.6573 13.8045 39.9854 14.049C40.3173 14.2897 40.6912 14.3699 41.1071 14.2973Z" fill="white"/>
<path d="M49.1079 13.1586L48.9515 14.8434L47.7878 14.7364L48.2571 9.60938L50.5845 9.82332C51.1072 9.87298 51.5269 10.0793 51.855 10.4422C52.1793 10.8014 52.3242 11.2254 52.2785 11.7144C52.2327 12.2073 52.019 12.6008 51.6337 12.895C51.256 13.1891 50.8019 13.3152 50.2716 13.2655L49.1079 13.1586ZM50.4891 10.893L49.3254 10.7861L49.2071 12.0888L50.3708 12.1958C50.5578 12.2149 50.7142 12.1652 50.8515 12.0506C50.9851 11.936 51.0576 11.787 51.0766 11.6036C51.0957 11.4164 51.0461 11.256 50.9355 11.1223C50.821 10.9847 50.6722 10.9083 50.4891 10.893Z" fill="white"/>
<path d="M56.8643 10.9199L60.5156 12.1195L60.1837 13.1396L57.6427 12.3067L57.3489 13.2007L59.4855 13.9037L59.1535 14.9237L57.017 14.2208L56.7117 15.1568L59.2871 16.0011L58.9551 17.0212L55.2695 15.8101L56.8643 10.9199Z" fill="white"/>
<path d="M65.403 20.5589L64.4377 19.8178L69.287 17.0518L70.0501 17.6363L68.6346 23.0384L67.6731 22.301L67.9211 21.3956L66.2119 20.0852L65.403 20.5589ZM68.2187 20.3068L68.6651 18.6563L67.1924 19.5198L68.2187 20.3068Z" fill="white"/>
<path d="M71.2253 25.8194L70.4431 24.9521L74.2546 21.4946L75.0367 22.3619L71.2253 25.8194Z" fill="white"/>
<path d="M73.6748 28.9677L73.0796 28.0126L77.4443 25.2925L77.9937 26.1712L76.6088 29.919L79.2833 28.2495L79.8785 29.2046L75.5138 31.9286L74.9644 31.0461L76.3379 27.3058L73.6748 28.9677Z" fill="white"/>
<path d="M77.4481 36.5205L77.1047 35.3477L82.6522 35.978L82.9231 36.9026L78.6003 40.4288L78.257 39.2636L78.9895 38.6791L78.3829 36.6122L77.4481 36.5205ZM79.867 37.9799L81.2024 36.914L79.5046 36.7383L79.867 37.9799Z" fill="white"/>
<path d="M82.7207 53.9683L83.0106 52.4058L84.0636 52.6006L83.2777 56.868L82.2209 56.6732L82.5108 55.1106L78.5085 54.3695L78.7222 53.2272L82.7207 53.9683Z" fill="white"/>
<path d="M77.5891 60.0622C78.2644 59.8062 78.9473 59.8406 79.6379 60.1615C80.3323 60.4824 80.8016 60.9829 81.0419 61.6629C81.2861 62.3468 81.248 63.0383 80.9275 63.7336C80.607 64.4289 80.1034 64.9026 79.4242 65.1586C78.7489 65.4184 78.0622 65.3878 77.3716 65.0669C76.6772 64.746 76.2079 64.2417 75.9714 63.5579C75.7272 62.874 75.7653 62.1825 76.0858 61.4872C76.4063 60.7918 76.9099 60.3181 77.5891 60.0622ZM77.0969 61.9571C76.9214 62.3391 76.9061 62.725 77.0511 63.1109C77.2037 63.4929 77.4784 63.7794 77.879 63.9666C78.2835 64.1538 78.6764 64.1806 79.058 64.043C79.4471 63.9093 79.7333 63.6495 79.9126 63.2637C80.0881 62.8816 80.1034 62.4958 79.9507 62.1137C79.8058 61.7355 79.5349 61.4528 79.1305 61.2618C78.7299 61.0746 78.3369 61.0478 77.9439 61.1815C77.5586 61.3153 77.2762 61.575 77.0969 61.9571Z" fill="white"/>
<path d="M76.9216 70.3428L76.1814 71.2483L73.03 68.6695L71.4619 70.595L70.6301 69.9149L72.9422 67.084L76.9216 70.3428Z" fill="white"/>
<path d="M67.0704 75.7985L68.9399 78.2168L68.0204 78.9313L66.1471 76.5053C65.7693 76.0201 65.6282 75.4776 65.7121 74.8778C65.7999 74.2818 66.1013 73.7889 66.6125 73.3878C67.1276 72.9866 67.6846 72.8224 68.2798 72.8873C68.8826 72.9523 69.371 73.2312 69.7449 73.7125L71.6182 76.1385L70.7025 76.8491L68.8292 74.4308C68.6346 74.1786 68.3905 74.0335 68.0929 73.9953C67.7953 73.957 67.5206 74.0373 67.2649 74.2359C67.0131 74.4308 66.8682 74.6753 66.83 74.9733C66.8033 75.2751 66.8796 75.5502 67.0704 75.7985Z" fill="white"/>
<path d="M63.8997 81.3493L62.8352 81.8307L61.1641 78.1172L58.9016 79.1411L58.4629 78.1631L61.7898 76.6616L63.8997 81.3493Z" fill="white"/>
<path d="M54.6973 80.0314C55.2924 80.4402 55.6549 81.0209 55.7884 81.7735C55.922 82.5261 55.777 83.1985 55.3573 83.7831C54.9338 84.3752 54.3462 84.7382 53.5946 84.8719C52.843 85.0056 52.1639 84.8642 51.5649 84.4554C50.9697 84.0467 50.5996 83.4659 50.4699 82.7133C50.3363 81.9607 50.4851 81.2883 50.9048 80.7038C51.3283 80.1116 51.9159 79.7487 52.6713 79.6149C53.4229 79.4774 54.1021 79.6188 54.6973 80.0314ZM52.8659 80.7152C52.4538 80.7878 52.1296 80.9941 51.893 81.3341C51.6679 81.678 51.5878 82.0677 51.6679 82.5032C51.7442 82.9426 51.9502 83.2787 52.2783 83.5156C52.6065 83.7601 52.9842 83.8442 53.4077 83.7716C53.8197 83.699 54.144 83.4889 54.373 83.145C54.6019 82.8088 54.6782 82.423 54.5981 81.9836C54.5218 81.5481 54.3157 81.2081 53.9876 80.9636C53.6519 80.7229 53.2818 80.6388 52.8659 80.7152Z" fill="white"/>
<path d="M44.8653 81.8538L45.0217 80.1689L46.1854 80.2759L45.7161 85.403L43.3888 85.189C42.8661 85.1393 42.4464 84.933 42.1183 84.5701C41.794 84.211 41.649 83.7869 41.6948 83.2979C41.7406 82.805 41.9542 82.4115 42.3396 82.1174C42.7173 81.8232 43.1713 81.6971 43.7016 81.7468L44.8653 81.8538ZM43.4842 84.1193L44.6478 84.2263L44.7661 82.9235L43.6024 82.8165C43.4155 82.7974 43.2591 82.8471 43.1217 82.9617C42.9882 83.0763 42.9157 83.2253 42.8966 83.4087C42.8775 83.5959 42.9271 83.7563 43.0378 83.8901C43.1522 84.0276 43.301 84.104 43.4842 84.1193Z" fill="white"/>
<path d="M37.1088 84.0885L33.4575 82.8889L33.7895 81.8689L36.3305 82.7017L36.6242 81.8077L34.4876 81.1048L34.8196 80.0847L36.9562 80.7877L37.2614 79.8517L34.6861 79.0074L35.018 77.9873L38.7036 79.1984L37.1088 84.0885Z" fill="white"/>
<path d="M28.5662 74.4536L29.5315 75.1947L24.6823 77.9607L23.9192 77.3762L25.3347 71.9741L26.2961 72.7115L26.0481 73.6169L27.7574 74.9273L28.5662 74.4536ZM25.7544 74.7057L25.308 76.3562L26.7807 75.4927L25.7544 74.7057Z" fill="white"/>
<path d="M22.7478 69.189L23.5299 70.0562L19.7184 73.5137L18.9363 72.6465L22.7478 69.189Z" fill="white"/>
<path d="M20.2984 66.0448L20.8936 66.9999L16.5289 69.7201L15.9795 68.8414L17.3645 65.0935L14.6899 66.7631L14.0947 65.8079L18.4594 63.084L19.0089 63.9665L17.6353 67.7067L20.2984 66.0448Z" fill="white"/>
<path d="M16.525 58.4879L16.8684 59.6608L11.3209 59.0304L11.05 58.1058L15.3728 54.5796L15.7162 55.7448L14.9836 56.3293L15.5903 58.3962L16.525 58.4879ZM14.1061 57.0323L12.7708 58.0982L14.4686 58.2739L14.1061 57.0323Z" fill="white"/>
</svg>
