<svg width="51" height="51" viewBox="0 0 51 51" fill="none" xmlns="http://www.w3.org/2000/svg">
<path d="M23.9094 30.3388L24.5408 30.4861C24.3737 31.218 24.2108 31.8661 24.054 32.4284C23.8971 32.9927 23.7261 33.5426 23.5428 34.0824C23.3594 34.6221 23.17 35.0699 22.9704 35.4216C22.7729 35.7732 22.559 36.0615 22.3329 36.2884C22.1048 36.5133 21.8604 36.6278 21.5997 36.6319C21.339 36.636 21.0661 36.5338 20.7809 36.3232C20.1699 35.8202 19.7137 34.8082 19.4082 33.2891C18.958 31.1853 18.9967 28.0715 19.5181 23.9538C19.5568 23.7943 19.5161 23.6962 19.3919 23.6614C18.5751 24.0417 17.07 24.6919 14.8744 25.6098C13.1777 26.3152 11.2795 26.8243 9.17961 27.1351C7.07972 27.4458 5.70899 27.4254 5.06945 27.0696C4.70691 26.8815 4.5236 26.4215 4.51953 25.6875C4.51953 25.389 4.54601 25.0394 4.60304 24.6428C5.09593 24.8575 5.66418 25.0006 6.30576 25.0721C7.96978 25.2766 9.98209 25.1887 12.3406 24.8063C13.1777 24.6775 13.9497 24.5365 14.6585 24.3872C15.3652 24.2359 15.9905 24.0805 16.5282 23.9211C17.0679 23.7595 17.4936 23.6307 17.8093 23.5265C18.123 23.4242 18.4774 23.2934 18.8705 23.1319C19.2656 22.9724 19.4937 22.8824 19.5548 22.864L19.6831 22.817C20.0171 20.5292 20.4163 18.5378 20.8787 16.8449C21.341 15.1521 21.7708 14.1666 22.17 13.8885C22.5712 13.6268 23.0275 13.5921 23.5346 13.7863C23.8177 13.9233 24.0132 14.0521 24.1212 14.1707C24.0743 14.2136 23.999 14.3077 23.8931 14.4508C23.7729 14.6144 23.5366 15.058 23.1761 15.7838C22.4327 17.4113 21.8278 19.4926 21.3594 22.0278C24.4186 20.6784 26.3738 19.8627 27.2232 19.5867C27.6529 19.4476 27.9747 19.372 28.1906 19.3556C28.9686 19.3066 29.4962 19.466 29.7793 19.83C29.9117 19.9894 30.0094 20.1877 30.0726 20.4229C29.541 20.4229 28.8933 20.4965 28.1315 20.6416C26.2109 21.0567 24.219 21.7539 22.1598 22.7332C22.0478 22.7782 21.726 22.9315 21.1883 23.1953C21.0009 24.3913 20.838 25.8429 20.6913 27.5522C20.5487 29.3309 20.5752 30.8561 20.7707 32.1319C20.9459 33.2727 21.1923 34.1437 21.5101 34.7489C21.8685 35.3807 22.3716 34.847 23.0234 33.1419C23.3207 32.3691 23.6161 31.4347 23.9094 30.3388Z" fill="#37266E"/>
<path d="M41.4232 25.6282C41.1055 25.4012 40.6187 25.3072 39.9649 25.344C39.6512 25.3665 39.3457 25.5014 39.0463 25.7509C38.7469 26.0003 38.4719 26.3049 38.2255 26.6648C37.9791 27.0246 37.7285 27.4131 37.478 27.8342C37.2255 28.2534 36.9648 28.6418 36.6959 28.9996C36.4271 29.3595 36.146 29.658 35.8527 29.8972C35.5594 30.1384 35.2233 30.2611 34.8465 30.2693C34.4697 30.2795 34.0705 30.1425 33.6489 29.8645C32.9096 29.4085 32.3943 29.1979 32.0969 29.2347C31.8016 29.2715 31.5653 29.5762 31.3902 30.1466C31.2109 31.1525 30.991 32.0521 30.7282 32.8433C30.4655 33.6346 30.2007 34.1028 29.9339 34.2438C29.6773 34.2275 29.443 34.1927 29.2272 34.1355C28.7322 34.0312 28.4308 33.8554 28.3208 33.61C28.1721 33.2972 28.054 32.5714 27.9603 31.4306C27.8666 30.2897 27.8422 29.4801 27.8849 29.0037C27.9094 28.7461 27.9359 28.4271 27.9684 28.0469C28.001 27.6645 28.0234 27.3395 28.0357 27.0716C28.0499 26.8017 28.054 26.6586 28.0519 26.6402C27.997 26.9306 27.6874 28.1409 27.1212 30.2775C26.5549 32.4119 26.2372 33.4833 26.1659 33.4935C26.0783 33.5078 25.946 33.5119 25.7688 33.5078C25.5936 33.5037 25.3797 33.4833 25.1313 33.4506C24.8828 33.4158 24.6628 33.3361 24.4734 33.2134C24.284 33.0887 24.1719 32.9251 24.1414 32.7207C24.1353 32.6859 24.119 32.5735 24.0905 32.3833C24.062 32.1932 24.0416 32.0623 24.0314 31.9908C24.0212 31.9213 24.0029 31.7884 23.9785 31.5921C23.952 31.3979 23.9357 31.2425 23.9275 31.13C23.9194 31.0196 23.9072 30.8663 23.8909 30.6741C23.8746 30.4819 23.8664 30.3143 23.8685 30.1691C23.8685 30.0239 23.8705 29.8604 23.8725 29.6784C23.8766 29.4964 23.8888 29.3186 23.9112 29.1427C23.9336 28.9669 23.9601 28.7952 23.9886 28.6275C24.0701 28.1082 24.2127 27.6605 24.4123 27.2843C24.6119 26.9101 24.8298 26.6423 25.0681 26.4828C25.3064 26.3233 25.5569 26.2007 25.8237 26.1148C26.0885 26.0289 26.335 26.0085 26.559 26.0555C26.7607 26.078 27.0091 26.1986 27.3045 26.4153C27.6731 25.2275 27.887 24.6264 27.9501 24.6161C28.109 24.5916 28.3982 24.6632 28.8218 24.8288C29.2434 24.9944 29.4858 25.1682 29.551 25.3481C29.5612 25.4176 29.553 26.1087 29.5245 27.4172C29.496 28.7257 29.4797 30.0035 29.4817 31.2466C29.4838 32.4917 29.5286 33.1357 29.6141 33.1766C29.7282 33.2686 29.8647 33.0457 30.0276 32.508C30.1885 31.9703 30.4533 30.9624 30.8219 29.4842C30.8749 28.7686 31.213 28.4415 31.8342 28.4987C32.0725 28.5253 32.325 28.5989 32.5919 28.7216C32.8587 28.8422 33.0929 28.9587 33.2945 29.0671C33.4962 29.1755 33.7019 29.2675 33.9117 29.339C34.1194 29.4106 34.3211 29.4106 34.5145 29.3411C34.708 29.2715 34.8893 29.1182 35.0604 28.8831C35.3781 28.4353 35.8405 27.7177 36.4433 26.7343C37.0442 25.7488 37.478 25.0864 37.7428 24.747C37.7978 24.6795 37.8528 24.6161 37.9078 24.5528C38.7041 23.6736 40.1115 23.7758 40.7999 24.7429L41.4232 25.6282ZM25.6119 32.4406L26.115 30.6107C26.7158 28.4087 27.0397 27.227 27.0865 27.0655L27.0214 26.9939C26.9684 26.949 26.9195 26.906 26.8727 26.8672C26.8258 26.8283 26.7647 26.7956 26.6873 26.767C26.612 26.7384 26.5407 26.7261 26.4735 26.7322C26.4063 26.7384 26.3309 26.7711 26.2454 26.8283C26.1598 26.8856 26.0763 26.9776 25.9948 27.0982C25.7036 27.4969 25.5101 28.2861 25.4123 29.4699C25.3268 30.2693 25.3349 30.9992 25.4347 31.6534C25.4734 31.9008 25.5325 32.1625 25.6119 32.4406Z" fill="#37266E"/>
<path d="M39.4251 22.2976C38.1135 15.5139 32.1641 10.3923 25.0233 10.3923C17.4833 10.3923 11.2712 16.1027 10.4463 23.4528" stroke="black" stroke-miterlimit="10"/>
<path d="M25.0233 40.0135C18.3081 40.0135 12.4117 35.4705 10.6846 28.9648L11.0105 28.8769C12.6989 35.2334 18.4609 39.6741 25.0233 39.6741C32.4411 39.6741 38.6389 34.1007 39.4394 26.7097L39.7754 26.7465C38.9567 34.3092 32.6142 40.0135 25.0233 40.0135Z" fill="black"/>
<path d="M10.6504 28.0754C10.7074 28.3617 10.7746 28.6438 10.848 28.9219" stroke="black" stroke-miterlimit="10"/>
<path d="M25.0235 49.316C11.7316 49.316 0.916504 38.4616 0.916504 25.117C0.916504 11.7723 11.7296 0.919922 25.0235 0.919922C38.3153 0.919922 49.1284 11.7743 49.1284 25.117C49.1284 38.4596 38.3153 49.316 25.0235 49.316ZM25.0235 1.25931C11.917 1.25931 1.2546 11.9624 1.2546 25.119C1.2546 38.2756 11.917 48.9787 25.0235 48.9787C38.1299 48.9787 48.7923 38.2756 48.7923 25.119C48.7923 11.9624 38.1299 1.25931 25.0235 1.25931Z" fill="black"/>
<path d="M25.0235 50.2382C11.2245 50.2382 0 38.9688 0 25.1191C0 11.2695 11.2266 0 25.0235 0C38.8204 0 50.047 11.2674 50.047 25.1191C50.047 38.9708 38.8224 50.2382 25.0235 50.2382ZM25.0235 0.33735C11.4119 0.33735 0.338101 11.4535 0.338101 25.1171C0.338101 38.7807 11.4119 49.8989 25.0235 49.8989C38.6351 49.8989 49.7089 38.7827 49.7089 25.1171C49.7109 11.4555 38.6371 0.33735 25.0235 0.33735Z" fill="black"/>
<path d="M5.9391 21.9317L5.78431 22.7679L5.22217 22.6636L5.64174 20.3799L6.20592 20.4842L6.05113 21.3204L8.18767 21.717L8.07361 22.3283L5.9391 21.9317Z" fill="black"/>
<path d="M8.68074 18.6708C8.32024 18.8078 7.95566 18.7894 7.58701 18.6176C7.21632 18.4459 6.9658 18.1781 6.83748 17.8141C6.70713 17.4482 6.7275 17.0781 6.89859 16.706C7.06967 16.3339 7.33852 16.0804 7.70107 15.9434C8.06157 15.8044 8.42819 15.8207 8.79684 15.9925C9.16752 16.1642 9.41804 16.4341 9.54432 16.8001C9.67467 17.166 9.65431 17.5361 9.48322 17.9082C9.31213 18.2782 9.04328 18.5338 8.68074 18.6708ZM8.94348 17.6567C9.03717 17.4523 9.04532 17.2458 8.96792 17.0393C8.88645 16.8348 8.7398 16.6815 8.52595 16.5813C8.31005 16.4811 8.10027 16.4668 7.89659 16.5404C7.68884 16.612 7.53609 16.751 7.44036 16.9575C7.34667 17.1619 7.33852 17.3684 7.41999 17.5729C7.49739 17.7753 7.642 17.9266 7.85789 18.0288C8.07175 18.129 8.28154 18.1433 8.49132 18.0718C8.69704 17.9981 8.84776 17.8612 8.94348 17.6567Z" fill="black"/>
<path d="M9.03711 13.1689L9.43224 12.6843L11.1146 14.0644L11.9517 13.0339L12.3957 13.3979L11.1614 14.9129L9.03711 13.1689Z" fill="black"/>
<path d="M14.294 10.2493L13.296 8.95508L13.7869 8.57275L14.7869 9.87103C14.9885 10.1307 15.0639 10.421 15.0191 10.742C14.9723 11.0609 14.8113 11.3247 14.5384 11.5394C14.2635 11.754 13.9661 11.842 13.6484 11.8072C13.3266 11.7724 13.0659 11.6232 12.8663 11.3656L11.8662 10.0673L12.355 9.68702L13.3551 10.9812C13.4589 11.1162 13.5893 11.1938 13.7482 11.2143C13.905 11.2347 14.0537 11.1918 14.1901 11.0855C14.3246 10.9812 14.402 10.8504 14.4223 10.6909C14.4366 10.5294 14.3979 10.3822 14.294 10.2493Z" fill="black"/>
<path d="M15.9883 7.27666L16.5565 7.01904L17.4486 9.00633L18.6564 8.4584L18.8906 8.98179L17.1146 9.7853L15.9883 7.27666Z" fill="black"/>
<path d="M20.9011 7.984C20.5834 7.76524 20.3899 7.45447 20.3186 7.0517C20.2473 6.64892 20.3247 6.28909 20.5488 5.97627C20.7749 5.65937 21.0885 5.46514 21.4898 5.39358C21.891 5.32202 22.2535 5.39767 22.5733 5.61643C22.891 5.8352 23.0886 6.14597 23.1579 6.54874C23.2291 6.95152 23.1497 7.31135 22.9257 7.62417C22.6996 7.94107 22.3859 8.1353 21.9827 8.20686C21.5814 8.27842 21.2189 8.20481 20.9011 7.984ZM21.8788 7.61803C22.0987 7.57919 22.2719 7.46878 22.3982 7.28682C22.5183 7.10281 22.5611 6.89427 22.5183 6.66119C22.4776 6.42607 22.3676 6.24615 22.1924 6.11939C22.0173 5.98854 21.8156 5.94356 21.5896 5.98241C21.3696 6.02125 21.1965 6.1337 21.0743 6.31771C20.9521 6.49763 20.9113 6.70412 20.9541 6.93925C20.9948 7.17232 21.1048 7.35429 21.28 7.48514C21.4572 7.61394 21.6568 7.65688 21.8788 7.61803Z" fill="black"/>
<path d="M26.1495 7.00875L26.066 7.91038L25.4448 7.85314L25.6953 5.10938L26.9378 5.22387C27.2168 5.25045 27.4408 5.36085 27.616 5.55508C27.7891 5.74727 27.8665 5.97421 27.8421 6.23591C27.8176 6.49966 27.7036 6.71024 27.4979 6.86767C27.2962 7.0251 27.0539 7.09257 26.7707 7.06599L26.1495 7.00875ZM26.8868 5.79634L26.2656 5.73909L26.2025 6.43628L26.8237 6.49352C26.9235 6.50375 27.007 6.47717 27.0803 6.41583C27.1516 6.35449 27.1903 6.27476 27.2005 6.17662C27.2107 6.07644 27.1842 5.99057 27.1251 5.91901C27.064 5.84541 26.9846 5.80452 26.8868 5.79634Z" fill="black"/>
<path d="M30.2903 5.81055L32.2395 6.45253L32.0623 6.99842L30.7058 6.55271L30.549 7.03113L31.6896 7.40733L31.5124 7.95322L30.3718 7.57702L30.2089 8.07793L31.5837 8.52977L31.4065 9.07566L29.439 8.42755L30.2903 5.81055Z" fill="black"/>
<path d="M34.8488 10.9689L34.3335 10.5723L36.9222 9.09204L37.3296 9.40485L36.5739 12.2958L36.0607 11.9012L36.193 11.4167L35.2806 10.7154L34.8488 10.9689ZM36.3519 10.834L36.5902 9.95075L35.804 10.4128L36.3519 10.834Z" fill="black"/>
<path d="M37.9566 13.7844L37.5391 13.3203L39.5738 11.47L39.9913 11.9341L37.9566 13.7844Z" fill="black"/>
<path d="M39.2645 15.469L38.9468 14.9579L41.2768 13.5022L41.5701 13.9724L40.8308 15.9781L42.2585 15.0847L42.5763 15.5958L40.2462 17.0535L39.9529 16.5813L40.6862 14.5797L39.2645 15.469Z" fill="black"/>
<path d="M41.2785 19.511L41.0952 18.8833L44.0566 19.2206L44.2013 19.7154L41.8936 21.6025L41.7103 20.9789L42.1014 20.6661L41.7775 19.56L41.2785 19.511ZM42.5698 20.292L43.2827 19.7216L42.3763 19.6275L42.5698 20.292Z" fill="black"/>
<path d="M44.0933 28.8484L44.2481 28.0122L44.8102 28.1165L44.3907 30.4002L43.8265 30.2959L43.9813 29.4597L41.8447 29.0631L41.9588 28.4518L44.0933 28.8484Z" fill="black"/>
<path d="M41.3539 32.1095C41.7144 31.9726 42.079 31.991 42.4476 32.1627C42.8183 32.3344 43.0688 32.6023 43.1972 32.9662C43.3275 33.3322 43.3071 33.7022 43.136 34.0743C42.965 34.4464 42.6961 34.7 42.3336 34.837C41.9731 34.976 41.6065 34.9596 41.2378 34.7879C40.8671 34.6161 40.6166 34.3463 40.4903 33.9803C40.36 33.6143 40.3803 33.2443 40.5514 32.8722C40.7225 32.5 40.9914 32.2465 41.3539 32.1095ZM41.0912 33.1236C40.9975 33.3281 40.9893 33.5346 41.0667 33.7411C41.1482 33.9455 41.2948 34.0989 41.5087 34.1991C41.7246 34.2992 41.9344 34.3135 42.138 34.2399C42.3458 34.1684 42.4985 34.0294 42.5943 33.8229C42.688 33.6184 42.6961 33.4119 42.6146 33.2075C42.5372 33.0051 42.3926 32.8538 42.1767 32.7515C41.9629 32.6513 41.7531 32.637 41.5433 32.7086C41.3376 32.7802 41.1869 32.9192 41.0912 33.1236Z" fill="black"/>
<path d="M40.9973 37.6112L40.6021 38.0957L38.9198 36.7157L38.0827 37.7461L37.6387 37.3822L38.8729 35.8672L40.9973 37.6112Z" fill="black"/>
<path d="M35.7386 40.5309L36.7366 41.8251L36.2457 42.2074L35.2457 40.9091C35.044 40.6495 34.9687 40.3591 35.0135 40.0382C35.0603 39.7192 35.2212 39.4555 35.4941 39.2408C35.7691 39.0261 36.0665 38.9382 36.3842 38.973C36.706 39.0077 36.9667 39.157 37.1663 39.4146L38.1663 40.7128L37.6775 41.0931L36.6775 39.7989C36.5736 39.664 36.4433 39.5863 36.2844 39.5659C36.1255 39.5454 35.9789 39.5884 35.8424 39.6947C35.708 39.7989 35.6306 39.9298 35.6102 40.0893C35.596 40.2508 35.6367 40.398 35.7386 40.5309Z" fill="black"/>
<path d="M34.0459 43.5016L33.4777 43.7592L32.5856 41.7719L31.3778 42.3198L31.1436 41.7964L32.9196 40.9929L34.0459 43.5016Z" fill="black"/>
<path d="M29.1336 42.7963C29.4514 43.015 29.6449 43.3258 29.7162 43.7286C29.7874 44.1314 29.71 44.4912 29.486 44.804C29.2599 45.1209 28.9463 45.3151 28.545 45.3867C28.1438 45.4583 27.7812 45.3826 27.4615 45.1638C27.1437 44.9451 26.9462 44.6343 26.8769 44.2315C26.8056 43.8288 26.8851 43.4689 27.1091 43.1561C27.3352 42.8392 27.6489 42.645 28.0521 42.5734C28.4534 42.4998 28.8159 42.5755 29.1336 42.7963ZM28.156 43.1623C27.936 43.2011 27.7629 43.3115 27.6366 43.4935C27.5165 43.6775 27.4737 43.886 27.5165 44.1191C27.5572 44.3542 27.6672 44.5341 27.8423 44.6609C28.0175 44.7917 28.2192 44.8367 28.4452 44.7979C28.6652 44.759 28.8383 44.6466 28.9605 44.4626C29.0827 44.2827 29.1235 44.0762 29.0807 43.841C29.04 43.608 28.93 43.426 28.7548 43.2951C28.5756 43.1663 28.378 43.1214 28.156 43.1623Z" fill="black"/>
<path d="M23.8849 43.7715L23.9684 42.8699L24.5896 42.9271L24.3391 45.6709L23.0967 45.5564C22.8177 45.5298 22.5936 45.4194 22.4185 45.2252C22.2454 45.033 22.168 44.806 22.1924 44.5443C22.2168 44.2806 22.3309 44.07 22.5366 43.9126C22.7382 43.7552 22.9806 43.6877 23.2637 43.7143L23.8849 43.7715ZM23.1476 44.9839L23.7688 45.0412L23.832 44.344L23.2108 44.2867C23.111 44.2765 23.0275 44.3031 22.9541 44.3644C22.8829 44.4258 22.8442 44.5055 22.834 44.6036C22.8238 44.7038 22.8503 44.7897 22.9093 44.8613C22.9704 44.9349 23.0499 44.9757 23.1476 44.9839Z" fill="black"/>
<path d="M19.7441 44.9675L17.7949 44.3255L17.9721 43.7796L19.3286 44.2253L19.4854 43.7469L18.3448 43.3707L18.522 42.8248L19.6626 43.201L19.8256 42.7001L18.4508 42.2483L18.628 41.7024L20.5954 42.3505L19.7441 44.9675Z" fill="black"/>
<path d="M15.1839 39.8113L15.6992 40.2079L13.1105 41.6882L12.7031 41.3753L13.4588 38.4844L13.972 38.879L13.8396 39.3635L14.7521 40.0648L15.1839 39.8113ZM13.6828 39.9462L13.4445 40.8295L14.2307 40.3674L13.6828 39.9462Z" fill="black"/>
<path d="M12.0777 36.9939L12.4952 37.458L10.4605 39.3083L10.043 38.8442L12.0777 36.9939Z" fill="black"/>
<path d="M10.7702 35.3111L11.088 35.8222L8.75794 37.2779L8.46465 36.8077L9.20399 34.802L7.77623 35.6954L7.4585 35.1843L9.78854 33.7266L10.0818 34.1988L9.3486 36.2004L10.7702 35.3111Z" fill="black"/>
<path d="M8.75574 31.2671L8.93905 31.8948L5.97762 31.5574L5.83301 31.0626L8.14065 29.1755L8.32395 29.7991L7.93289 30.1119L8.25674 31.218L8.75574 31.2671ZM7.46444 30.4881L6.75158 31.0585L7.65793 31.1526L7.46444 30.4881Z" fill="black"/>
</svg>
