<svg width="195" height="195" viewBox="0 0 195 195" fill="none" xmlns="http://www.w3.org/2000/svg">
<circle cx="97.5" cy="97.5" r="97.5" fill="#37266E"/>
<g clip-path="url(#clip0_163_11)">
<path d="M75.6476 49H130.245C130.242 57.5548 130.232 66.1096 130.247 74.6669C130.247 75.3834 130.066 75.9029 129.541 76.4224C125.792 80.1227 122.068 83.8487 118.365 87.5951C117.848 88.1171 117.331 88.3065 116.609 88.3065C100.997 88.2885 85.3831 88.2937 69.7715 88.2937H68.5584V94.0591H111.915C109.847 96.114 107.959 97.9591 106.116 99.8476C105.63 100.347 105.146 100.539 104.45 100.539C92.8588 100.518 81.2703 100.523 69.6794 100.523H68.5558V106.299H99.7407C98.6044 107.397 97.6753 108.272 96.7745 109.17C94.8985 111.041 92.7129 112.709 91.2592 114.866C89.8081 117.021 89.0966 119.672 88.0601 122.106C87.3026 123.884 86.5425 125.663 85.7184 127.598C84.234 126.095 82.8494 124.696 81.4009 123.232C80.0317 124.604 78.5626 125.819 77.4135 127.288C75.6809 129.501 73.6027 130.366 70.8106 130.026C68.9653 129.801 67.0689 129.983 65.175 129.983V135.73C68.6966 135.73 72.1414 135.692 75.5836 135.753C76.6227 135.771 77.3828 135.505 78.0866 134.724C79.141 133.552 80.3029 132.478 81.4495 131.331C82.9441 132.836 84.3645 134.218 85.7209 135.658C86.1765 136.142 86.5425 136.17 87.1234 135.922C92.7206 133.529 98.3331 131.172 103.93 128.777C104.47 128.547 104.995 128.194 105.412 127.779C113.417 119.803 121.405 111.806 129.4 103.817C129.628 103.589 129.874 103.379 130.186 103.09V147.005H56V68.6353H75.6195C75.6195 68.1491 75.6195 67.7678 75.6195 67.3865C75.6297 61.2577 75.6374 55.1288 75.6476 49ZM109.01 76.1767H77.1601V81.7707H109.01V76.1767Z" fill="#F2DABA"/>
<path d="M154 69.6871C151.807 71.8597 149.611 74.0323 147.423 76.2126C147.292 76.3405 147.126 76.5145 147.118 76.6732C147.064 78.1293 146.094 79.0147 145.16 79.9385C144.3 80.7881 143.474 81.6735 142.698 82.4745C140.815 80.5936 139 78.7792 137.211 76.9931C138.373 75.7954 139.619 74.4801 140.912 73.2083C141.193 72.9319 141.626 72.6581 141.994 72.653C142.982 72.6325 143.527 72.0004 144.131 71.3914C146.035 69.4696 147.952 67.5605 149.887 65.6259C151.287 66.9438 152.644 68.2208 154 69.4977V69.6896V69.6871Z" fill="#F2DABA"/>
<path d="M132.927 81.3587C134.665 83.0963 136.461 84.8953 138.194 86.6303C127.005 97.8183 115.759 109.065 104.565 120.258C102.825 118.528 101.023 116.737 99.2775 115.002C110.482 103.799 121.727 92.5519 132.924 81.3562L132.927 81.3587Z" fill="#F2DABA"/>
<path d="M69.8022 62.8954H56.8215C61.1211 58.5989 65.5103 54.2102 69.8022 49.9187V62.8954Z" fill="#F2DABA"/>
<path d="M91.9656 127.605C93.1761 124.744 94.274 122.147 95.3234 119.67C96.8487 121.19 98.3638 122.7 99.9121 124.243C97.3989 125.307 94.8115 126.4 91.9656 127.605Z" fill="#F2DABA"/>
</g>
<defs>
<clipPath id="clip0_163_11">
<rect width="98" height="98" fill="white" transform="translate(56 49)"/>
</clipPath>
</defs>
</svg>
